<svg xmlns="http://www.w3.org/2000/svg" version="1.1" xmlns:xlink="http://www.w3.org/1999/xlink" xmlns:svgjs="http://svgjs.dev/svgjs" width="100%" height="100%" viewBox="0 0 1000 600"><rect width="1000" height="600" x="0" y="0" fill="#ffffff"/><g><rect width="333.3333333333333" height="333.3333333333333" y="207.6877771557743" fill="#000000" transform="matrix(0.6739795939075491,0,0,0.6739795939075494,0,47.69274016036748)" x="185.46556091308594"/><path d="M334.98936695286216 299.3544427162958L369.2750802005636 299.3544427162958L394.98936513633964 395.78301122545616L417.4893644551438 299.3544427162958L459.2750774757799 299.3544427162958L418.56079299413443 449.35443817498964L377.8465085124889 449.35443817498964L352.1322235767128 356.14015528280135L326.41793864093677 449.35443817498964L285.7036541592913 449.35443817498964L244.9893696776458 299.3544427162958L286.77508269828195 299.3544427162958L309.275082017086 395.78301122545616L334.98936695286216 299.3544427162958Z " fill="#ffffff" transform="matrix(0.6739795939075491,0,0,0.6739795939075494,0,47.69274016036748)"/><path d="M690.8646120609199 299.35444265233366L724.6674271461662 299.35444265233366L750.0195384601011 394.4248600795891L772.202635859794 299.35444265233366L813.399816744938 299.35444265233366L773.258973831208 447.2417586502866L733.1181309174779 447.2417586502866L707.7660196035431 355.340355137273L682.4139082896083 447.2417586502866L642.2730653758782 447.2417586502866L602.1322224621481 299.35444265233366L643.3294033472921 299.35444265233366L665.5125007469851 394.4248600795891L690.8646120609199 299.35444265233366ZM884.1744608296727 359.56570702292873L865.1603773442215 359.56570702292873Q856.70967357291 359.56570702292873 856.70967357291 368.01641079424036L856.70967357291 368.01641079424036L856.70967357291 379.63612847979385L892.6251646009842 379.63612847979385L892.6251646009842 368.01641079424036Q892.6251646009842 359.56570702292873 884.1744608296727 359.56570702292873L884.1744608296727 359.56570702292873ZM925.3716417148167 418.72063342211L925.3716417148167 445.12908270745874Q884.585258929667 449.3544345931145 851.4279837158402 449.3544345931145L851.4279837158402 449.3544345931145Q837.0500502160393 449.3544345931145 828.3939473947305 440.6983317718057Q819.7378445734217 432.04222895049696 819.7378445734217 417.664295450696L819.7378445734217 417.664295450696L819.7378445734217 366.96007282282636Q819.7378445734217 351.1150032516172 828.7167173304404 342.1361304945986Q837.6955900874589 333.15725773758 853.5406596586681 333.15725773758L853.5406596586681 333.15725773758L895.7941785152261 333.15725773758Q911.6392480864354 333.15725773758 920.6181208434539 342.1361304945986Q929.5969936004725 351.1150032516172 929.5969936004725 366.96007282282636L929.5969936004725 366.96007282282636L929.5969936004725 406.0445777651425L856.70967357291 406.0445777651425L856.70967357291 414.4952815364541Q856.70967357291 417.664295450696 858.822349515738 419.77697139352387Q860.9350254585657 421.88964733635174 864.1040393728076 421.88964733635174L864.1040393728076 421.88964733635174Q885.0253997510895 421.88964733635174 925.3716417148167 418.72063342211L925.3716417148167 418.72063342211ZM1010.9350173993466 359.56570702292873L991.9209339138955 359.56570702292873Q983.470230142584 359.56570702292873 983.470230142584 368.01641079424036L983.470230142584 368.01641079424036L983.470230142584 379.63612847979385L1019.3857211706583 379.63612847979385L1019.3857211706583 368.01641079424036Q1019.3857211706583 359.56570702292873 1010.9350173993466 359.56570702292873L1010.9350173993466 359.56570702292873ZM1052.1321982844906 418.72063342211L1052.1321982844906 445.12908270745874Q1011.345815499341 449.3544345931145 978.1885402855143 449.3544345931145L978.1885402855143 449.3544345931145Q963.8106067857133 449.3544345931145 955.1545039644044 440.6983317718057Q946.4984011430957 432.04222895049696 946.4984011430957 417.664295450696L946.4984011430957 417.664295450696L946.4984011430957 366.96007282282636Q946.4984011430957 351.1150032516172 955.4772739001143 342.1361304945986Q964.4561466571329 333.15725773758 980.3012162283421 333.15725773758L980.3012162283421 333.15725773758L1022.5547350849001 333.15725773758Q1038.3998046561094 333.15725773758 1047.3786774131281 342.1361304945986Q1056.3575501701466 351.1150032516172 1056.3575501701466 366.96007282282636L1056.3575501701466 366.96007282282636L1056.3575501701466 406.0445777651425L983.470230142584 406.0445777651425L983.470230142584 414.4952815364541Q983.470230142584 417.664295450696 985.5829060854119 419.77697139352387Q987.6955820282398 421.88964733635174 990.8645959424815 421.88964733635174L990.8645959424815 421.88964733635174Q1011.7859563207634 421.88964733635174 1052.1321982844906 418.72063342211L1052.1321982844906 418.72063342211ZM1123.9631803406392 411.32626762221224L1148.2589536831601 335.269933680408L1187.3434586254762 335.269933680408L1145.0899397689182 447.2417586502866L1102.8364209123602 447.2417586502866L1060.5829020558022 335.269933680408L1099.6674069981186 335.269933680408L1123.9631803406392 411.32626762221224ZM1230.6533154534482 419.77697139352387L1235.9350053105177 419.77697139352387Q1247.143924896077 419.77697139352387 1261.2871166244527 415.5516195078681L1261.2871166244527 415.5516195078681L1261.2871166244527 402.87556385090073L1230.6533154534482 402.87556385090073Q1227.4843015392062 402.87556385090073 1225.3716255963786 404.9882397937286Q1223.2589496535506 407.1009157365565 1223.2589496535506 410.26992965079836L1223.2589496535506 410.26992965079836L1223.2589496535506 412.38260559362624Q1223.2589496535506 415.5516195078681 1225.3716255963786 417.664295450696Q1227.4843015392062 419.77697139352387 1230.6533154534482 419.77697139352387L1230.6533154534482 419.77697139352387ZM1196.8505003682017 363.7910589085846L1196.8505003682017 337.38260962323585Q1235.5242072105234 333.15725773758 1266.5688064815226 333.15725773758L1266.5688064815226 333.15725773758Q1280.9467399813234 333.15725773758 1289.602842802632 341.81336055888875Q1298.2589456239411 350.4694633801975 1298.2589456239411 364.8473968799985L1298.2589456239411 364.8473968799985L1298.2589456239411 447.2417586502866L1265.5124685101086 447.2417586502866L1263.3997925672807 436.6783789361471Q1253.4819527245609 443.2218058146279 1243.0066011747058 446.30279156458533Q1232.560592346279 449.3544345931145 1225.3716255963786 449.3544345931145L1225.3716255963786 449.3544345931145L1217.9772597964807 449.3544345931145Q1203.59932629668 449.3544345931145 1194.9432234753713 440.6983317718057Q1186.2871206540624 432.04222895049696 1186.2871206540624 417.664295450696L1186.2871206540624 417.664295450696L1186.2871206540624 408.1572537079705Q1186.2871206540624 393.7793202081695 1194.9432234753713 385.12321738686074Q1203.59932629668 376.467114565552 1217.9772597964807 376.467114565552L1217.9772597964807 376.467114565552L1261.2871166244527 376.467114565552L1261.2871166244527 368.01641079424036Q1261.2871166244527 364.8473968799985 1259.1744406816247 362.7347209371706Q1257.0617647387967 360.62204499434273 1253.8927508245552 360.62204499434273L1253.8927508245552 360.62204499434273Q1240.1603571961737 360.62204499434273 1223.58171958926 361.88378201575387Q1207.0030819823469 363.1455190371649 1196.8505003682017 363.7910589085846L1196.8505003682017 363.7910589085846Z " fill="#000000" transform="matrix(0.6739795939075491,0,0,0.6739795939075494,0,47.69274016036748)"/></g></svg>